<?xml version="1.0" encoding="utf-8"?>
<!-- Generator: Adobe Illustrator 18.1.1, SVG Export Plug-In . SVG Version: 6.00 Build 0)  -->
<svg version="1.1" id="Layer_1" xmlns="http://www.w3.org/2000/svg" xmlns:xlink="http://www.w3.org/1999/xlink" x="0px" y="0px"
	 viewBox="-295 387 20 20" enable-background="new -295 387 20 20" xml:space="preserve">
<g id="icons" transform="translate(-2 -2)">
	<g id="exit2">
		<path id="Path_1" fill="#00A8F1" d="M-283,397c1.1,0,2-0.9,2-2v-4c0-1.1-0.9-2-2-2s-2,0.9-2,2v4C-285,396.1-284.1,397-283,397z"/>
		<path id="Path_2" fill="#00A8F1" d="M-275.9,391.9L-275.9,391.9c-0.3-0.3-0.7-0.4-1.1-0.4c-0.8,0-1.5,0.7-1.5,1.5
			c0,0.4,0.2,0.8,0.4,1.1l0,0c1.3,1.3,2,3.1,2,4.9c0,3.9-3.1,7-7,7s-7-3.1-7-7c0-1.9,0.8-3.6,2.1-4.9l0,0c0.3-0.3,0.5-0.7,0.5-1.1
			c0-0.8-0.7-1.5-1.5-1.5c-0.4,0-0.8,0.2-1.1,0.4l0,0c-3.9,3.9-3.9,10.3,0.1,14.1c3.9,3.9,10.3,3.9,14.1-0.1
			C-272,402.1-272,395.8-275.9,391.9z"/>
	</g>
</g>
</svg>
